# xmcd
#
# Track frame offsets:
#	150
#	9916
#	20274
#	33129
#	45112
#	56882
#	69014
#	83304
#	92393
#	101468
#	111273
#	123950
#	136494
#	148815
#	163084
#	172702
#	186173
#	200481
#	209219
#	217178
#	230353
#	239404
#	251459
#	261248
#	272429
#
# Disc length: 3801 seconds
#
# Revision: 1
# Processed by: cddbd v1.5.2PL0 Copyright (c) Steve Scherf et al.
# Submitted via: audiograbber 1.83.01
#
DISCID=4d0ed719
DTITLE=Various Artist - Country Gospel (Volume 1)
DYEAR=2010
DGENRE=Country Gospel
TTITLE0=Whirlwind Evangelists - Higher Ground
TTITLE1=Whirlwind Evangelists - From Crooked Street To Glory Avenue
TTITLE2=Whirlwind Evangelists - No Grave
TTITLE3=Sunshine Boys Quartet - The Devil Can't Harm A Praying Man
TTITLE4=Sunshine Boys Quartet - Goin' Back To Jesus Every Day
TTITLE5=Troy and Helen - Tattler's Wagon
TTITLE6=Charlie Huff and His Sons Of The Plains - Blood On The Cross
TTITLE7=Queen City Sacred Quartet - I'm Using My Bible For A Road Map
TTITLE8=Queen City Sacred Quartet - Lonely Tombs
TTITLE9=Al Runyon - Hold To God's Unchanging Hand
TTITLE10=Peanut Faircloth and His Log Cabin Boys - Little David
TTITLE11=Le Fevre Trio - Satisfied
TTITLE12=Le Fevre Trio - God Is God
TTITLE13=Lee Mace and The Ozark Opera Singers - This World Is Not My Home
TTITLE14=Hoyt Scoggins and The Kingsmen Quartet - Jesus Still Heals
TTITLE15=Billie and Gordon Hamrick - He's Gonna Take His Children Out
TTITLE16=Curt and Fay Bartness - Country Music In A Sacred Way
TTITLE17=Claude Eldridge - Will I Play My Guitar In Heaven
TTITLE18=Delbert Barker - Calling You
TTITLE19=Roy Robinson - I Told It To Jesus
TTITLE20=The Campbell Trio - Satan Lost A Sinner
TTITLE21=Clarence Baker - Soon I'll Hear My Saviour Calling
TTITLE22=Joe Franklin - Swing Wide Those Golden Gates
TTITLE23=Jerry and The String Trio - Lead Me To The Promise Land
TTITLE24=Jerry and The String Trio - Judgement Day
EXTD=BACM CD D 323
EXTT0=
EXTT1=
EXTT2=
EXTT3=
EXTT4=
EXTT5=
EXTT6=
EXTT7=
EXTT8=
EXTT9=
EXTT10=
EXTT11=
EXTT12=
EXTT13=
EXTT14=
EXTT15=
EXTT16=
EXTT17=
EXTT18=
EXTT19=
EXTT20=
EXTT21=
EXTT22=
EXTT23=
EXTT24=
PLAYORDER=
